<svg xmlns="http://www.w3.org/2000/svg" width="600" height="900" viewBox="0 0 600 900"><defs><linearGradient id="g" x1="0" y1="0" x2="0.5" y2="1"><stop offset="0%" stop-color="#2a1f4d"/><stop offset="55%" stop-color="#181233"/><stop offset="100%" stop-color="#0b0819"/></linearGradient></defs><rect width="600" height="900" fill="url(#g)"/>
<g transform="translate(150.0,180.0) scale(2.34375)">
  <path d="M60 4 L112 34 L112 94 L60 124 L8 94 L8 34 Z" fill="none"
        stroke="#c9b6ff" stroke-width="7" stroke-linejoin="round"/>
  <path d="M60 30 L89 47 L89 81 L60 98 L31 81 L31 47 Z" fill="#8b5cf6" opacity="0.25"/>
  <circle cx="60" cy="64" r="15" fill="#c9b6ff"/>
  <path d="M60 30 L60 49 M89 47 L72 57 M89 81 L72 71 M60 98 L60 79 M31 81 L48 71 M31 47 L48 57"
        stroke="#c9b6ff" stroke-width="6" stroke-linecap="round"/>
</g><text x="300" y="600" font-family="DejaVu Sans" font-size="80" font-weight="bold" fill="#f0ecff" text-anchor="middle" letter-spacing="2">QWEN A1</text><text x="300" y="682" font-family="DejaVu Sans" font-size="72" font-weight="bold" fill="#a78bfa" text-anchor="middle" letter-spacing="8">4B</text><text x="300" y="758" font-family="DejaVu Sans" font-size="26" fill="#8b83a8" text-anchor="middle" letter-spacing="3">AGENTE DE PROGRAMACION</text></svg>